# xmcd
#
# Track frame offsets:
#	150
#	14113
#	30414
#	43466
#	57219
#	72330
#	85315
#	98815
#	115227
#	128783
#	145840
#	158490
#	171390
#	187326
#	201011
#	215389
#	231171
#	244184
#
# Disc length: 3466 seconds
#
# Revision: 1
# Processed by: cddbd v1.5.2PL0 Copyright (c) Steve Scherf et al.
# Submitted via: audiograbber 1.82.02
#
DISCID=090d8812
DTITLE=Various Artist - Country Radio - January 2020
DYEAR=2020
DGENRE=Country
TTITLE0=Luke Bryan - What She Wants Tonight
TTITLE1=Granger Smith - That's Why I Love Dirt Roads
TTITLE2=Wilkes - I Wanna Leave You
TTITLE3=Clint Black - This Old House
TTITLE4=Cash Campbell - Bump
TTITLE5=Derek Johnson - Real Cool Kinda Hot
TTITLE6=Sam Hunt - Kinfolks
TTITLE7=Chris Janson - Done
TTITLE8=Darlinghurst - So Long So Long
TTITLE9=Carrie Underwood - Drinking Alone
TTITLE10=Mitchell Tenpenny (Ft. Seaforth) - Anything She Says
TTITLE11=Morgan Evans - Diamonds
TTITLE12=Lindsay Ell - I Don't Love You
TTITLE13=Jackson Michelson - Stay Over
TTITLE14=Matt Stell - Everywhere But On
TTITLE15=Niko Moon - Good Time
TTITLE16=Grace Asbury - Pour Me
TTITLE17=For King and Country (Ft. Dolly Parton) - God Only Knows
EXTD=
EXTT0=
EXTT1=
EXTT2=
EXTT3=
EXTT4=
EXTT5=
EXTT6=
EXTT7=
EXTT8=
EXTT9=
EXTT10=
EXTT11=
EXTT12=
EXTT13=
EXTT14=
EXTT15=
EXTT16=
EXTT17=
PLAYORDER=
